<mxfile host="app.diagrams.net" modified="2021-10-09T15:21:04.315Z" agent="5.0 (Windows NT 10.0; Win64; x64) AppleWebKit/537.36 (KHTML, like Gecko) Chrome/94.0.4606.71 Safari/537.36" etag="WOdb6sO7m5_qfh-orD_2" version="15.4.3" type="github">
  <diagram id="dxTMGuwwzbTacfZgN72j" name="第 1 页">
    <mxGraphModel dx="1673" dy="925" grid="1" gridSize="10" guides="1" tooltips="1" connect="1" arrows="1" fold="1" page="1" pageScale="1" pageWidth="850" pageHeight="1100" math="0" shadow="0">
      <root>
        <mxCell id="0" />
        <mxCell id="1" parent="0" />
        <mxCell id="1GQEX7CCRz82MPK-1-Et-16" style="edgeStyle=orthogonalEdgeStyle;rounded=0;orthogonalLoop=1;jettySize=auto;html=1;" edge="1" parent="1" source="1GQEX7CCRz82MPK-1-Et-1" target="1GQEX7CCRz82MPK-1-Et-2">
          <mxGeometry relative="1" as="geometry" />
        </mxCell>
        <mxCell id="1GQEX7CCRz82MPK-1-Et-18" style="edgeStyle=orthogonalEdgeStyle;rounded=0;orthogonalLoop=1;jettySize=auto;html=1;" edge="1" parent="1" source="1GQEX7CCRz82MPK-1-Et-1" target="1GQEX7CCRz82MPK-1-Et-3">
          <mxGeometry relative="1" as="geometry" />
        </mxCell>
        <mxCell id="1GQEX7CCRz82MPK-1-Et-1" value="后台" style="rounded=0;whiteSpace=wrap;html=1;" vertex="1" parent="1">
          <mxGeometry x="380" y="200" width="100" height="40" as="geometry" />
        </mxCell>
        <mxCell id="1GQEX7CCRz82MPK-1-Et-11" style="edgeStyle=orthogonalEdgeStyle;rounded=0;orthogonalLoop=1;jettySize=auto;html=1;entryX=0.5;entryY=0;entryDx=0;entryDy=0;" edge="1" parent="1" source="1GQEX7CCRz82MPK-1-Et-2" target="1GQEX7CCRz82MPK-1-Et-4">
          <mxGeometry relative="1" as="geometry">
            <Array as="points">
              <mxPoint x="230" y="400" />
              <mxPoint x="70" y="400" />
            </Array>
          </mxGeometry>
        </mxCell>
        <mxCell id="1GQEX7CCRz82MPK-1-Et-25" style="edgeStyle=orthogonalEdgeStyle;rounded=0;orthogonalLoop=1;jettySize=auto;html=1;entryX=0.6;entryY=0;entryDx=0;entryDy=0;entryPerimeter=0;" edge="1" parent="1" source="1GQEX7CCRz82MPK-1-Et-2" target="1GQEX7CCRz82MPK-1-Et-10">
          <mxGeometry relative="1" as="geometry" />
        </mxCell>
        <mxCell id="1GQEX7CCRz82MPK-1-Et-31" style="edgeStyle=orthogonalEdgeStyle;rounded=0;orthogonalLoop=1;jettySize=auto;html=1;" edge="1" parent="1" source="1GQEX7CCRz82MPK-1-Et-2" target="1GQEX7CCRz82MPK-1-Et-7">
          <mxGeometry relative="1" as="geometry">
            <Array as="points">
              <mxPoint x="230" y="400" />
              <mxPoint x="280" y="400" />
            </Array>
          </mxGeometry>
        </mxCell>
        <mxCell id="1GQEX7CCRz82MPK-1-Et-33" style="edgeStyle=orthogonalEdgeStyle;rounded=0;orthogonalLoop=1;jettySize=auto;html=1;" edge="1" parent="1">
          <mxGeometry relative="1" as="geometry">
            <mxPoint x="280" y="400" as="sourcePoint" />
            <mxPoint x="425" y="450" as="targetPoint" />
            <Array as="points">
              <mxPoint x="425" y="400" />
            </Array>
          </mxGeometry>
        </mxCell>
        <mxCell id="1GQEX7CCRz82MPK-1-Et-2" value="视频管理" style="rounded=0;whiteSpace=wrap;html=1;" vertex="1" parent="1">
          <mxGeometry x="180" y="310" width="100" height="40" as="geometry" />
        </mxCell>
        <mxCell id="1GQEX7CCRz82MPK-1-Et-36" value="" style="edgeStyle=orthogonalEdgeStyle;rounded=0;orthogonalLoop=1;jettySize=auto;html=1;" edge="1" parent="1" source="1GQEX7CCRz82MPK-1-Et-3" target="1GQEX7CCRz82MPK-1-Et-35">
          <mxGeometry relative="1" as="geometry" />
        </mxCell>
        <mxCell id="1GQEX7CCRz82MPK-1-Et-37" value="" style="edgeStyle=orthogonalEdgeStyle;rounded=0;orthogonalLoop=1;jettySize=auto;html=1;" edge="1" parent="1" source="1GQEX7CCRz82MPK-1-Et-3" target="1GQEX7CCRz82MPK-1-Et-35">
          <mxGeometry relative="1" as="geometry" />
        </mxCell>
        <mxCell id="1GQEX7CCRz82MPK-1-Et-39" value="" style="edgeStyle=orthogonalEdgeStyle;rounded=0;orthogonalLoop=1;jettySize=auto;html=1;" edge="1" parent="1" source="1GQEX7CCRz82MPK-1-Et-3" target="1GQEX7CCRz82MPK-1-Et-38">
          <mxGeometry relative="1" as="geometry" />
        </mxCell>
        <mxCell id="1GQEX7CCRz82MPK-1-Et-3" value="用户管理" style="rounded=0;whiteSpace=wrap;html=1;" vertex="1" parent="1">
          <mxGeometry x="550" y="320" width="100" height="40" as="geometry" />
        </mxCell>
        <mxCell id="1GQEX7CCRz82MPK-1-Et-4" value="内容修改" style="rounded=0;whiteSpace=wrap;html=1;" vertex="1" parent="1">
          <mxGeometry x="20" y="450" width="100" height="40" as="geometry" />
        </mxCell>
        <mxCell id="1GQEX7CCRz82MPK-1-Et-7" value="视频发布" style="rounded=0;whiteSpace=wrap;html=1;" vertex="1" parent="1">
          <mxGeometry x="240" y="450" width="100" height="40" as="geometry" />
        </mxCell>
        <mxCell id="1GQEX7CCRz82MPK-1-Et-10" value="&lt;span style=&quot;font-family: &amp;#34;helvetica&amp;#34;&quot;&gt;视频上传&lt;/span&gt;" style="rounded=0;whiteSpace=wrap;html=1;" vertex="1" parent="1">
          <mxGeometry x="130" y="450" width="100" height="40" as="geometry" />
        </mxCell>
        <mxCell id="1GQEX7CCRz82MPK-1-Et-34" value="视频分类" style="rounded=0;whiteSpace=wrap;html=1;" vertex="1" parent="1">
          <mxGeometry x="350" y="450" width="100" height="40" as="geometry" />
        </mxCell>
        <mxCell id="1GQEX7CCRz82MPK-1-Et-35" value="角色分配" style="rounded=0;whiteSpace=wrap;html=1;" vertex="1" parent="1">
          <mxGeometry x="490" y="450" width="100" height="40" as="geometry" />
        </mxCell>
        <mxCell id="1GQEX7CCRz82MPK-1-Et-38" value="资料修改" style="rounded=0;whiteSpace=wrap;html=1;" vertex="1" parent="1">
          <mxGeometry x="630" y="450" width="100" height="40" as="geometry" />
        </mxCell>
      </root>
    </mxGraphModel>
  </diagram>
</mxfile>
